Coordinates
version=1
nRows=19
nColumns=24
inDegrees=yes

Units are S.I. units (second, meters, Newtons, ...)
Angles are in degrees.

endheader
time	pelvis_tilt	pelvis_list	pelvis_rotation	pelvis_tx	pelvis_ty	pelvis_tz	hip_flexion_r	hip_adduction_r	hip_rotation_r	knee_angle_r	ankle_angle_r	subtalar_angle_r	mtp_angle_r	hip_flexion_l	hip_adduction_l	hip_rotation_l	knee_angle_l	ankle_angle_l	subtalar_angle_l	mtp_angle_l	lumbar_extension	lumbar_bending	lumbar_rotation
      6.32500000	     15.32461814	     -2.32830219	     12.96218054	      2.51226917	      0.75560791	     -0.25182399	     -7.40805222	      8.18284932	     -5.25135077	    -16.12170654	     26.34911720	      5.60799755	      0.00000000	     11.54845913	     -0.46451471	      7.82206782	    -69.37106662	     19.09568090	     -4.66932044	      0.00000000	    -32.63320952	      8.77585714	     -0.17100768
      6.33000000	     15.37231155	     -2.21517649	     12.52474862	      2.51890530	      0.75614434	     -0.25149763	     -8.31799387	      8.11275331	     -5.07192809	    -15.59138071	     26.62553745	      6.14412716	      0.00000000	     12.05681536	     -0.31145565	      7.15659163	    -68.29592459	     19.53550989	     -5.18642694	      0.00000000	    -32.75944501	      8.49855058	      0.16753030
      6.33500000	     15.47883435	     -2.05859566	     12.13810406	      2.52556416	      0.75665885	     -0.25125933	     -9.31146748	      7.99009744	     -5.03821282	    -15.04238412	     26.95162847	      6.83908613	      0.00000000	     12.45643323	     -0.12590546	      6.53336868	    -67.12088987	     19.88308163	     -5.72669035	      0.00000000	    -32.94303869	      8.22078798	      0.43214661
      6.34000000	     15.49328720	     -2.04230809	     11.66451893	      2.53218710	      0.75693084	     -0.25092278	    -10.14192435	      7.97831415	     -4.84209328	    -14.55036373	     27.19937627	      7.36605608	      0.00000000	     12.98011378	     -0.11556431	      5.81607862	    -65.92498633	     20.21109269	     -6.23815830	      0.00000000	    -33.02649248	      8.02852625	      0.84445732
      6.34500000	     15.60850347	     -1.90766037	     11.23227480	      2.53885000	      0.75725795	     -0.25067319	    -11.13072771	      7.84536340	     -4.76929608	    -14.01967821	     27.56997287	      8.08048575	      0.00000000	     13.31154417	      0.00906218	      5.14065510	    -64.59364664	     20.40919425	     -6.76522885	      0.00000000	    -33.22582506	      7.75959865	      1.13811097
      6.35000000	     15.65355930	     -1.93263368	     10.76204099	      2.54546871	      0.75735692	     -0.25039682	    -11.98058938	      7.84637989	     -4.63771672	    -13.53749183	     27.80688298	      8.67546100	      0.00000000	     13.74848470	     -0.04659998	      4.43786827	    -63.24928430	     20.62712166	     -7.27476612	      0.00000000	    -33.34200014	      7.62556888	      1.59030351
      6.35500000	     15.75316305	     -1.88012904	     10.28709094	      2.55211340	      0.75745033	     -0.25014891	    -12.91758024	      7.75723270	     -4.53060670	    -13.03915586	     28.15208821	      9.35698264	      0.00000000	     14.05466389	     -0.02885340	      3.74623391	    -61.78826246	     20.75079839	     -7.75206930	      0.00000000	    -33.52932167	      7.42337728	      1.97856314
      6.36000000	     15.89270841	     -1.81449846	      9.87655475	      2.55876396	      0.75747612	     -0.24999825	    -13.90512426	      7.65559309	     -4.54050931	    -12.52971822	     28.51830353	     10.11859427	      0.00000000	     14.28616904	      0.00485378	      3.11087063	    -60.25034238	     20.85227992	     -8.18003491	      0.00000000	    -33.74991856	      7.25675777	      2.26960893
      6.36500000	     15.96543476	     -1.86408619	      9.41066214	      2.56536901	      0.75731177	     -0.24980080	    -14.78018095	      7.64418243	     -4.40486842	    -12.05176214	     28.82885755	     10.74723815	      0.00000000	     14.59680234	     -0.08590255	      2.46496424	    -58.68562702	     20.91857892	     -8.52232191	      0.00000000	    -33.90510613	      7.16501931	      2.72772447
      6.37000000	     16.09466875	     -1.86661144	      8.96812689	      2.57200113	      0.75712777	     -0.24964502	    -15.72658242	      7.58120103	     -4.36395113	    -11.57821540	     29.14797490	     11.42761064	      0.00000000	     14.78656981	     -0.13903977	      1.82183166	    -57.01615902	     21.00401680	     -8.80983790	      0.00000000	    -34.12145151	      7.05041102	      3.07458926
      6.37500000	     16.14593636	     -1.98992608	      8.50816240	      2.57857796	      0.75674738	     -0.24947818	    -16.55250519	      7.62003830	     -4.21801190	    -11.12835946	     29.39133503	     11.99306266	      0.00000000	     15.07276525	     -0.30962886	      1.21584926	    -55.32794682	     21.06647663	     -8.97408996	      0.00000000	    -34.25760074	      7.03570373	      3.55832961
      6.38000000	     16.24749929	     -2.04997872	      8.04521412	      2.58517446	      0.75635150	     -0.24933150	    -17.44829798	      7.58609820	     -4.08427905	    -10.67894583	     29.71842780	     12.58669487	      0.00000000	     15.23575634	     -0.41902588	      0.61527973	    -53.53388519	     21.13764011	     -8.99416363	      0.00000000	    -34.45611686	      6.96365587	      3.97963758
      6.38500000	     16.38241441	     -2.11282923	      7.63930121	      2.59174851	      0.75588589	     -0.24925693	    -18.38297456	      7.56408851	     -3.99664234	    -10.22190264	     30.08710704	     13.20343681	      0.00000000	     15.33682315	     -0.51416008	      0.10420742	    -51.68134079	     21.20077250	     -8.86026390	      0.00000000	    -34.69083185	      6.93045820	      4.33945682
      6.39000000	     16.49877536	     -2.19748233	      7.24819361	      2.59833447	      0.75532769	     -0.24920141	    -19.29111160	      7.55490536	     -3.96910949	     -9.77347277	     30.36925818	     13.79670092	      0.00000000	     15.42088957	     -0.62164683	     -0.36695528	    -49.75855382	     21.32220801	     -8.60052602	      0.00000000	    -34.90300219	      6.91933475	      4.69445475
      6.39500000	     16.57923280	     -2.33112439	      6.84075069	      2.60487819	      0.75464666	     -0.24913290	    -20.13590727	      7.58013009	     -3.85715155	     -9.36151290	     30.66881999	     14.32385249	      0.00000000	     15.52534646	     -0.77717711	     -0.81343834	    -47.79765645	     21.44917445	     -8.13521129	      0.00000000	    -35.08634758	      6.94420911	      5.09526942
      6.40000000	     16.62595442	     -2.50006028	      6.42720392	      2.61138485	      0.75385735	     -0.24906100	    -20.91934537	      7.62749806	     -3.69756073	     -8.99303738	     30.97698170	     14.80836441	      0.00000000	     15.63905488	     -0.96036560	     -1.21416794	    -45.78916247	     21.59486435	     -7.46671247	      0.00000000	    -35.24354069	      6.99509129	      5.51746673
      6.40500000	     16.65731381	     -2.66714387	      6.03172234	      2.61790817	      0.75299934	     -0.24900543	    -21.68440080	      7.66926034	     -3.59780030	     -8.63439652	     31.23820162	     15.25488160	      0.00000000	     15.72481860	     -1.13238587	     -1.57101124	    -43.71490219	     21.78494134	     -6.60983560	      0.00000000	    -35.38197101	      7.04652120	      5.92620857
      6.41000000	     16.70741354	     -2.84204077	      5.66768717	      2.62441021	      0.75208735	     -0.24897989	    -22.46393656	      7.72387630	     -3.50364779	     -8.28933664	     31.53275286	     15.70978377	      0.00000000	     15.75571922	     -1.29857274	     -1.84660779	    -41.59274722	     22.00032425	     -5.55973145	      0.00000000	    -35.54769138	      7.12213145	      6.29565515
      6.41500000	     16.74478123	     -3.03009916	      5.32238019	      2.63089794	      0.75110471	     -0.24897522	    -23.21479999	      7.78926122	     -3.43182328	     -7.97531579	     31.82502211	     16.15458357	      0.00000000	     15.76556970	     -1.46430906	     -2.05205863	    -39.42715833	     22.22182832	     -4.35327104	      0.00000000	    -35.70347815	      7.21699944	      6.65055438
